<svg width="1024" height="1024" viewBox="0 0 1024 1024" fill="none" xmlns="http://www.w3.org/2000/svg">
<rect width="1024" height="1024" fill="#787880" fill-opacity="0.08"/>
<path d="M548.192 582.475C528.216 582.475 509.079 579.883 490.78 574.699C472.482 569.362 455.327 561.585 439.316 551.368C423.457 541.151 409.123 528.724 396.314 514.085L427.879 498.989L256.102 636.456L234.601 608.78L415.528 463.993C435.809 447.829 454.565 434.791 471.796 424.88C489.027 414.968 505.343 407.801 520.744 403.379C536.145 398.957 551.394 396.822 566.49 396.974C587.991 397.279 606.061 401.473 620.7 409.555C635.338 417.484 646.317 428.463 653.637 442.492C661.109 456.368 664.845 472.38 664.845 490.526C664.845 507.757 660.194 523.31 650.892 537.187C641.59 551.063 628.171 562.118 610.635 570.353C593.252 578.435 572.437 582.475 548.192 582.475ZM250.384 743.731C233.305 743.731 217.294 740.529 202.35 734.124C187.559 727.872 174.521 719.104 163.237 707.82C151.953 696.689 143.109 683.727 136.704 668.936C130.452 653.992 127.326 638.057 127.326 621.131C127.326 604.205 130.452 588.346 136.704 573.555C143.109 558.611 151.953 545.497 163.237 534.213C174.521 522.929 187.559 514.085 202.35 507.68C217.294 501.276 233.305 498.074 250.384 498.074C267.31 498.074 283.169 501.276 297.96 507.68C312.751 514.085 325.713 522.929 336.844 534.213C348.128 545.497 356.896 558.611 363.148 573.555C369.553 588.346 372.755 604.205 372.755 621.131C372.755 638.057 369.553 653.916 363.148 668.707C356.896 683.498 348.128 696.536 336.844 707.82C325.713 719.104 312.751 727.872 297.96 734.124C283.169 740.529 267.31 743.731 250.384 743.731ZM250.155 708.278C266.319 708.278 280.958 704.313 294.071 696.384C307.338 688.607 317.86 678.161 325.636 665.047C333.566 651.781 337.53 637.066 337.53 620.902C337.53 604.739 333.566 590.1 325.636 576.986C317.86 563.719 307.338 553.198 294.071 545.421C280.958 537.492 266.319 533.527 250.155 533.527C233.839 533.527 219.048 537.492 205.781 545.421C192.667 553.198 182.146 563.719 174.216 576.986C166.439 590.1 162.551 604.739 162.551 620.902C162.551 637.066 166.439 651.781 174.216 665.047C182.146 678.161 192.667 688.607 205.781 696.384C219.048 704.313 233.839 708.278 250.155 708.278ZM286.523 445.694C281.644 445.694 277.45 444.017 273.943 440.662C270.588 437.155 268.911 432.962 268.911 428.082C268.911 423.202 270.588 419.009 273.943 415.502C277.45 411.994 281.644 410.241 286.523 410.241H391.968C396.848 410.241 401.041 411.994 404.549 415.502C408.056 419.009 409.809 423.202 409.809 428.082C409.809 432.962 408.056 437.155 404.549 440.662C401.194 444.017 397 445.694 391.968 445.694H286.523ZM772.577 743.731C755.498 743.731 739.487 740.529 724.544 734.124C709.752 727.872 696.715 719.104 685.431 707.82C674.299 696.689 665.531 683.727 659.126 668.936C652.722 653.992 649.52 638.057 649.52 621.131C649.52 604.205 652.722 588.346 659.126 573.555C665.531 558.611 674.299 545.497 685.431 534.213C696.715 522.929 709.752 514.085 724.544 507.68C739.487 501.276 755.498 498.074 772.577 498.074C789.503 498.074 805.362 501.276 820.153 507.68C834.944 514.085 847.906 522.929 859.037 534.213C870.322 545.497 879.09 558.611 885.342 573.555C891.746 588.346 894.948 604.205 894.948 621.131C894.948 638.057 891.746 653.916 885.342 668.707C879.09 683.498 870.322 696.536 859.037 707.82C847.906 719.104 834.944 727.872 820.153 734.124C805.362 740.529 789.503 743.731 772.577 743.731ZM772.348 708.278C788.512 708.278 803.151 704.313 816.265 696.384C829.531 688.607 840.053 678.161 847.83 665.047C855.759 651.781 859.724 637.066 859.724 620.902C859.724 604.739 855.759 590.1 847.83 576.986C840.053 563.719 829.531 553.198 816.265 545.421C803.151 537.492 788.512 533.527 772.348 533.527C756.032 533.527 741.241 537.492 727.975 545.421C714.861 553.198 704.339 563.719 696.41 576.986C688.633 590.1 684.744 604.739 684.744 620.902C684.744 637.066 688.633 651.781 696.41 665.047C704.339 678.161 714.861 688.607 727.975 696.384C741.241 704.313 756.032 708.278 772.348 708.278ZM771.891 650.637C763.352 650.637 756.337 647.74 750.848 641.946C745.511 636.151 742.918 629.137 743.071 620.902C743.071 612.363 745.739 605.272 751.076 599.63C756.566 593.836 763.504 590.938 771.891 590.938C780.278 590.938 787.292 593.836 792.934 599.63C798.729 605.425 801.626 612.515 801.626 620.902C801.626 629.137 798.729 636.151 792.934 641.946C787.14 647.74 780.125 650.637 771.891 650.637ZM755.88 622.503L634.881 321.722C634.271 320.35 633.051 319.663 631.221 319.663H572.666C567.634 319.663 563.364 317.986 559.857 314.631C556.502 311.124 554.825 306.931 554.825 302.051C554.825 297.019 556.502 292.826 559.857 289.471C563.364 285.964 567.634 284.21 572.666 284.21H638.312C644.869 284.21 650.282 285.43 654.552 287.87C658.821 290.157 662.1 294.045 664.387 299.535L789.046 611.067L755.88 622.503ZM772.577 443.178C765.258 442.568 758.472 440.205 752.22 436.087C745.511 431.818 740.402 426.176 736.895 419.161C733.54 411.994 732.015 404.446 732.32 396.517C732.778 388.588 735.294 381.268 739.869 374.559C743.681 368.612 748.789 363.885 755.194 360.377C759.006 358.243 762.284 358.014 765.029 359.691C767.774 361.216 769.527 364.037 770.29 368.154L783.099 429.454C783.861 433.419 783.327 436.85 781.498 439.747C779.668 442.492 776.694 443.636 772.577 443.178ZM249.469 650.866C240.93 650.866 233.915 647.969 228.426 642.174C223.089 636.227 220.42 629.137 220.42 620.902C220.573 612.515 223.317 605.501 228.654 599.859C234.144 594.064 241.082 591.167 249.469 591.167C257.856 591.167 264.87 594.064 270.512 599.859C276.307 605.501 279.204 612.515 279.204 620.902C279.204 629.137 276.307 636.227 270.512 642.174C264.718 647.969 257.703 650.866 249.469 650.866ZM433.597 668.936C428.718 668.936 424.524 667.258 421.017 663.904C417.663 660.397 415.985 656.127 415.985 651.095C415.985 646.215 417.663 642.098 421.017 638.743C424.524 635.236 428.718 633.482 433.597 633.482H486.434C489.789 633.482 492.534 632.415 494.669 630.28L559.628 558.916L609.72 559.145L517.999 658.414C514.34 662.531 510.985 665.352 507.935 666.877C504.885 668.25 500.768 668.936 495.584 668.936H433.597Z" fill="#787880" fill-opacity="0.16"/>
</svg>
