<svg width="1024" height="1024" viewBox="0 0 1024 1024" fill="none" xmlns="http://www.w3.org/2000/svg">
<rect width="1024" height="1024" fill="#787880" fill-opacity="0.08"/>
<path d="M511.454 745.332C479.736 745.332 451.983 738.851 428.195 725.89C404.407 713.081 385.88 695.087 372.614 671.909C359.5 648.579 352.943 621.436 352.943 590.481C352.943 575.232 354.62 560.212 357.975 545.421C361.33 530.63 365.447 516.677 370.326 503.563C375.206 490.449 379.857 478.86 384.279 468.796C392.513 450.345 402.273 431.513 413.557 412.299C424.993 392.934 437.04 373.644 449.696 354.43C462.353 335.217 474.552 316.461 486.293 298.163C489.8 292.978 493.689 289.013 497.958 286.269C502.381 283.524 506.879 282.151 511.454 282.151C516.181 282.151 520.679 283.524 524.949 286.269C529.218 289.013 533.107 292.978 536.614 298.163C548.508 316.461 560.707 335.217 573.211 354.43C585.867 373.644 597.914 392.934 609.351 412.299C620.787 431.513 630.546 450.345 638.628 468.796C643.05 478.86 647.701 490.449 652.581 503.563C657.46 516.677 661.577 530.63 664.932 545.421C668.287 560.212 669.964 575.232 669.964 590.481C669.964 621.436 663.331 648.579 650.065 671.909C636.951 695.087 618.5 713.081 594.712 725.89C570.924 738.851 543.171 745.332 511.454 745.332Z" fill="#787880" fill-opacity="0.16"/>
</svg>
