<svg width="1024" height="1024" viewBox="0 0 1024 1024" fill="none" xmlns="http://www.w3.org/2000/svg">
<rect width="1024" height="1024" fill="#787880" fill-opacity="0.08"/>
<path d="M368.877 441.12V408.411C368.877 382.336 375.129 358.929 387.633 338.191C400.29 317.452 417.369 301.06 438.869 289.013C460.37 276.814 484.615 270.715 511.606 270.715C538.596 270.715 562.842 276.814 584.342 289.013C605.995 301.06 623.074 317.452 635.578 338.191C648.082 358.929 654.334 382.336 654.334 408.411V441.12H617.508V408.411C617.508 389.35 612.857 372.195 603.556 356.947C594.254 341.698 581.597 329.651 565.586 320.807C549.575 311.963 531.582 307.541 511.606 307.541C491.63 307.541 473.636 311.963 457.625 320.807C441.766 329.651 429.11 341.698 419.656 356.947C410.354 372.195 405.703 389.35 405.703 408.411V441.12H368.877ZM511.606 550.224C486.14 550.224 461.895 546.641 438.869 539.474C415.996 532.155 395.105 520.566 376.197 504.707C357.441 488.696 341.582 467.576 328.621 441.348C338.837 435.554 351.113 432.657 365.447 432.657H657.765C672.251 432.657 684.527 435.554 694.591 441.348C681.629 467.576 665.694 488.696 646.786 504.707C628.03 520.566 607.139 532.155 584.114 539.474C561.24 546.641 537.071 550.224 511.606 550.224ZM746.741 665.047C749.181 684.871 747.885 701.568 742.853 715.14C737.821 728.863 729.282 739.233 717.235 746.247C705.341 753.414 690.092 756.997 671.489 756.997H351.723C333.119 756.997 317.794 753.414 305.748 746.247C293.854 739.233 285.391 728.863 280.359 715.14C275.326 701.568 274.03 684.871 276.47 665.047L296.37 495.786C297.742 484.655 300.563 475.429 304.833 468.11C317.642 491.288 332.509 510.806 349.435 526.665C366.361 542.371 384.66 554.875 404.331 564.177C424.154 573.326 444.664 579.731 465.86 583.39V599.63C465.86 607.407 467.994 613.43 472.264 617.7C476.686 621.817 482.786 623.876 490.562 623.876H532.649C540.426 623.876 546.449 621.817 550.719 617.7C555.141 613.43 557.352 607.407 557.352 599.63V583.39C578.548 579.731 598.981 573.25 618.652 563.948C638.475 554.646 656.85 542.143 673.776 526.436C690.702 510.578 705.57 491.059 718.379 467.881C722.801 475.353 725.698 484.655 727.071 495.786L746.741 665.047Z" fill="#787880" fill-opacity="0.16"/>
</svg>
