<svg width="1024" height="1024" viewBox="0 0 1024 1024" fill="none" xmlns="http://www.w3.org/2000/svg">
<rect width="1024" height="1024" fill="#787880" fill-opacity="0.08"/>
<path d="M511.565 356.718C502.416 356.718 494.029 354.507 486.405 350.085C478.933 345.51 472.986 339.487 468.564 332.015C464.142 324.39 461.93 316.004 461.93 306.854C461.93 297.553 464.142 289.166 468.564 281.694C472.986 274.222 478.933 268.275 486.405 263.853C494.029 259.278 502.416 256.991 511.565 256.991C520.867 256.991 529.254 259.278 536.726 263.853C544.35 268.275 550.373 274.222 554.795 281.694C559.217 289.166 561.429 297.553 561.429 306.854C561.429 316.004 559.217 324.39 554.795 332.015C550.373 339.487 544.35 345.51 536.726 350.085C529.254 354.507 520.867 356.718 511.565 356.718ZM481.601 766.147C475.502 766.147 470.241 764.012 465.819 759.742C461.549 755.472 459.414 750.212 459.414 743.96V645.834H428.307C422.055 645.834 417.633 643.547 415.041 638.972C412.448 634.245 412.143 628.832 414.126 622.732L460.787 480.919C462.007 477.412 461.549 474.667 459.414 472.684C457.432 470.702 454.992 470.016 452.095 470.626C449.198 471.083 447.139 473.218 445.919 477.03L415.269 569.667C412.982 576.986 409.246 581.865 404.062 584.305C398.877 586.593 393.692 586.974 388.508 585.449C383.323 583.924 379.282 580.798 376.385 576.071C373.64 571.191 373.412 565.168 375.699 558.001L408.407 459.418C414.354 441.577 421.445 427.014 429.679 415.73C438.066 404.446 448.435 396.212 460.787 391.027C473.138 385.69 488.387 383.022 506.533 383.022H516.826C534.819 383.022 549.992 385.69 562.343 391.027C574.847 396.212 585.217 404.446 593.451 415.73C601.838 427.014 608.928 441.577 614.723 459.418L647.431 558.001C649.719 565.168 649.49 571.191 646.745 576.071C644 580.798 639.96 583.924 634.623 585.449C629.438 586.974 624.253 586.593 619.069 584.305C613.884 581.865 610.148 576.986 607.861 569.667L577.211 477.03C575.991 473.218 573.933 471.083 571.035 470.626C568.138 470.016 565.622 470.702 563.487 472.684C561.505 474.667 561.124 477.412 562.343 480.919L609.005 622.732C610.987 628.832 610.682 634.245 608.09 638.972C605.497 643.547 601.075 645.834 594.823 645.834H563.945V743.96C563.945 750.212 561.734 755.472 557.311 759.742C553.042 764.012 547.781 766.147 541.529 766.147C535.429 766.147 530.169 764.012 525.746 759.742C521.477 755.472 519.342 750.212 519.342 743.96V645.834C519.342 643.699 518.58 641.869 517.055 640.344C515.53 638.82 513.7 638.057 511.565 638.057C509.583 638.057 507.829 638.82 506.304 640.344C504.779 641.869 504.017 643.699 504.017 645.834V743.96C504.017 750.212 501.806 755.472 497.384 759.742C493.114 764.012 487.853 766.147 481.601 766.147Z" fill="#787880" fill-opacity="0.16"/>
</svg>
