<svg width="1024" height="1024" viewBox="0 0 1024 1024" fill="none" xmlns="http://www.w3.org/2000/svg">
<rect width="1024" height="1024" fill="#787880" fill-opacity="0.08"/>
<path d="M335.792 431.97C334.725 436.24 335.03 439.29 336.707 441.12C338.537 442.797 341.663 443.483 346.085 443.178C358.742 442.416 372.618 441.653 387.714 440.891C402.811 440.128 420.347 439.518 440.323 439.061C460.451 438.604 484.315 438.375 511.915 438.375C539.516 438.375 563.304 438.604 583.28 439.061C603.408 439.518 621.02 440.128 636.116 440.891C651.365 441.653 665.318 442.416 677.974 443.178C682.396 443.483 685.446 442.797 687.123 441.12C688.953 439.29 689.335 436.24 688.267 431.97C686.285 423.736 683.845 414.968 680.948 405.666C678.203 396.212 675.306 387.52 672.256 379.591C669.359 371.509 666.614 365.333 664.022 361.064C660.819 355.727 657.388 351.762 653.729 349.17C650.069 346.577 645.113 344.824 638.861 343.909C630.322 342.536 615.836 341.545 595.402 340.935C575.121 340.325 547.293 340.02 511.915 340.02C476.538 340.02 448.709 340.402 428.429 341.164C408.148 341.774 393.661 342.689 384.97 343.909C378.87 344.824 373.914 346.577 370.102 349.17C366.29 351.762 362.859 355.727 359.809 361.064C357.369 365.486 354.625 371.738 351.575 379.82C348.525 387.749 345.552 396.365 342.654 405.666C339.757 414.968 337.47 423.736 335.792 431.97ZM347 601.003C357.522 601.003 366.29 597.495 373.304 590.481C380.319 583.314 383.826 574.546 383.826 564.177C383.826 553.655 380.319 544.887 373.304 537.873C366.29 530.858 357.522 527.351 347 527.351C336.479 527.351 327.711 530.858 320.696 537.873C313.682 544.887 310.175 553.655 310.175 564.177C310.175 574.546 313.682 583.314 320.696 590.481C327.711 597.495 336.479 601.003 347 601.003ZM451.53 591.853H572.529C580.306 591.853 586.634 589.414 591.514 584.534C596.393 579.654 598.833 573.25 598.833 565.321C598.833 557.544 596.393 551.216 591.514 546.336C586.634 541.456 580.306 539.017 572.529 539.017H451.53C443.601 539.017 437.197 541.456 432.317 546.336C427.437 551.216 424.998 557.544 424.998 565.321C424.998 573.25 427.437 579.654 432.317 584.534C437.197 589.414 443.601 591.853 451.53 591.853ZM676.831 601.003C687.352 601.003 696.12 597.495 703.135 590.481C710.149 583.314 713.656 574.546 713.656 564.177C713.656 553.655 710.149 544.887 703.135 537.873C696.12 530.858 687.352 527.351 676.831 527.351C666.461 527.351 657.77 530.858 650.755 537.873C643.741 544.887 640.234 553.655 640.234 564.177C640.234 574.546 643.741 583.314 650.755 590.481C657.77 597.495 666.461 601.003 676.831 601.003ZM511.915 662.76C492.702 662.76 472.421 662.531 451.073 662.074C429.725 661.616 408.758 661.006 388.172 660.244C367.586 659.329 348.678 658.338 331.447 657.271C314.368 656.203 300.415 655.059 289.589 653.84C274.187 652.01 262.293 646.901 253.907 638.515C245.52 630.128 241.326 618.615 241.326 603.976V563.719C241.326 550.758 242.241 539.474 244.071 529.867C246.054 520.108 249.103 511.035 253.22 502.648C257.49 494.109 263.208 485.265 270.375 476.115L289.589 451.184C292.333 437.46 295.688 423.889 299.653 410.47C303.618 397.051 307.506 385.004 311.318 374.33C315.13 363.656 318.409 355.498 321.154 349.856C327.253 336.894 336.021 326.602 347.458 318.977C358.894 311.2 372.237 306.397 387.486 304.567C392.518 303.957 401.057 303.423 413.104 302.966C425.303 302.508 439.865 302.127 456.791 301.822C473.87 301.517 492.245 301.365 511.915 301.365C531.586 301.365 549.885 301.517 566.811 301.822C583.889 301.975 598.452 302.28 610.499 302.737C622.698 303.195 631.389 303.805 636.574 304.567C651.67 306.549 664.937 311.353 676.373 318.977C687.962 326.602 696.806 336.894 702.906 349.856C705.498 355.498 708.7 363.656 712.513 374.33C716.477 385.004 720.366 397.051 724.178 410.47C728.143 423.889 731.497 437.46 734.242 451.184L753.684 476.115C760.699 485.265 766.341 494.109 770.61 502.648C774.88 511.035 777.93 520.108 779.76 529.867C781.589 539.474 782.504 550.758 782.504 563.719V603.976C782.504 618.615 778.311 630.128 769.924 638.515C761.69 646.901 749.796 652.01 734.242 653.84C723.416 655.059 709.387 656.203 692.156 657.271C675.077 658.338 656.245 659.329 635.659 660.244C615.073 661.006 594.106 661.616 572.758 662.074C551.41 662.531 531.129 662.76 511.915 662.76ZM271.748 725.661C263.056 725.661 255.813 722.764 250.018 716.969C244.224 711.175 241.326 704.008 241.326 695.469V596.886L328.93 638.515V695.469C328.93 704.008 325.957 711.175 320.01 716.969C314.215 722.764 307.049 725.661 298.509 725.661H271.748ZM725.322 725.661C716.782 725.661 709.615 722.764 703.821 716.969C698.026 711.175 695.129 704.008 695.129 695.469V638.515L782.504 596.886V695.469C782.504 704.008 779.607 711.175 773.813 716.969C768.018 722.764 760.851 725.661 752.312 725.661H725.322Z" fill="#787880" fill-opacity="0.16"/>
</svg>
