<svg width="1024" height="1024" viewBox="0 0 1024 1024" fill="none" xmlns="http://www.w3.org/2000/svg">
<rect width="1024" height="1024" fill="#787880" fill-opacity="0.08"/>
<path d="M446.586 717.198C443.536 717.198 441.02 716.207 439.038 714.225C437.056 712.242 436.064 709.65 436.064 706.448C436.064 703.246 437.056 700.653 439.038 698.671C441.02 696.841 443.536 695.926 446.586 695.926H576.277C579.479 695.926 582.071 696.841 584.053 698.671C586.036 700.653 587.027 703.246 587.027 706.448C587.027 709.65 586.036 712.242 584.053 714.225C582.071 716.207 579.479 717.198 576.277 717.198H446.586ZM320.326 711.022V316.69C320.326 298.544 326.121 283.905 337.71 272.773C349.452 261.642 364.777 256.076 383.685 256.076H639.178C658.086 256.076 673.335 261.642 684.924 272.773C696.665 283.905 702.536 298.544 702.536 316.69V711.022C702.536 729.016 696.665 743.578 684.924 754.71C673.335 765.842 658.086 771.407 639.178 771.407H383.685C364.777 771.407 349.452 765.842 337.71 754.71C326.121 743.578 320.326 729.016 320.326 711.022ZM357.152 704.847C357.152 714.148 359.897 721.392 365.386 726.576C370.876 731.913 378.5 734.582 388.26 734.582H634.603C644.362 734.582 651.987 731.913 657.476 726.576C662.966 721.392 665.711 714.148 665.711 704.847V322.866C665.711 313.411 662.966 306.092 657.476 300.907C651.987 295.57 644.362 292.902 634.603 292.902H388.26C378.5 292.902 370.876 295.57 365.386 300.907C359.897 306.092 357.152 313.411 357.152 322.866V704.847Z" fill="#787880" fill-opacity="0.16"/>
</svg>
