<svg width="1024" height="1024" viewBox="0 0 1024 1024" fill="none" xmlns="http://www.w3.org/2000/svg">
<rect width="1024" height="1024" fill="#787880" fill-opacity="0.08"/>
<path d="M732.64 313.945C746.668 327.821 756.733 343.909 762.832 362.207C769.084 380.506 771.448 399.643 769.923 419.619C768.398 439.595 763.137 459.342 754.14 478.86C745.144 498.226 732.487 516.067 716.171 532.383C697.11 551.444 676.295 565.092 653.727 573.326C631.159 581.408 608.057 585.83 584.422 586.593C567.191 587.203 551.484 588.346 537.303 590.024C523.122 591.548 509.474 594.598 496.36 599.173C483.399 603.747 470.209 610.686 456.79 619.987C443.371 629.137 428.732 641.564 412.873 657.271L389.085 633.711C404.944 617.853 417.524 603.214 426.826 589.795C436.28 576.223 443.295 562.881 447.869 549.767C452.596 536.653 455.722 523.005 457.247 508.824C458.772 494.49 459.687 478.784 459.992 461.705C460.297 438.527 464.643 415.578 473.03 392.857C481.416 369.984 495.064 349.093 513.973 330.185C530.289 313.869 548.13 301.289 567.496 292.444C587.014 283.448 606.761 278.187 626.737 276.662C646.713 275.137 665.85 277.501 684.149 283.753C702.447 289.852 718.611 299.916 732.64 313.945ZM708.165 338.191C693.222 323.247 676.067 313.869 656.701 310.057C637.487 306.244 617.664 308.074 597.231 315.546C576.797 323.018 557.203 336.056 538.447 354.659C519.691 373.415 506.577 393.086 499.105 413.672C491.633 434.258 489.803 454.157 493.615 473.371C497.428 492.584 506.882 509.663 521.978 524.606C536.922 539.55 554 548.928 573.214 552.74C592.427 556.553 612.251 554.723 632.684 547.251C653.27 539.779 673.017 526.665 691.925 507.909C710.681 489.306 723.719 469.787 731.038 449.354C738.51 428.921 740.264 409.097 736.299 389.884C732.487 370.518 723.109 353.287 708.165 338.191ZM497.504 549.081C494.149 545.726 490.947 542.219 487.897 538.559C485 534.899 482.331 531.011 479.892 526.894C478.062 538.178 475.088 549.233 470.971 560.06C467.006 570.734 461.212 581.713 453.588 592.997C464.872 585.525 475.851 579.731 486.525 575.614C497.351 571.496 508.407 568.447 519.691 566.464C515.726 564.024 511.838 561.432 508.026 558.687C504.213 555.79 500.706 552.588 497.504 549.081ZM286.614 744.188C281.277 738.851 278.608 732.676 278.608 725.661C278.608 718.799 281.277 712.776 286.614 707.591L375.133 618.615C380.47 613.43 386.569 610.838 393.431 610.838C400.446 610.838 406.621 613.43 411.958 618.615L427.055 633.94C432.392 639.125 435.06 645.224 435.06 652.238C435.06 659.253 432.392 665.429 427.055 670.766L338.536 759.513C333.199 764.698 327.023 767.29 320.009 767.29C313.147 767.29 307.047 764.698 301.71 759.513L286.614 744.188ZM477.833 458.961L642.748 293.817L654.185 305.482L489.27 470.397L477.833 458.961ZM490.642 511.569L695.585 306.854L706.564 318.52L501.85 523.005L490.642 511.569ZM523.351 544.506L728.294 339.563L739.73 351.228L535.016 555.943L523.351 544.506ZM576.187 557.315L740.874 392.4L752.539 403.836L587.395 568.98L576.187 557.315ZM625.822 300.221L637.259 288.785L756.199 407.496L744.762 418.933L625.822 300.221ZM574.129 310.972L585.565 299.535L747.05 460.79L735.156 472.456L574.129 310.972ZM540.734 339.334L552.171 327.669L718.458 493.956L706.564 505.622L540.734 339.334ZM511.685 368.383L523.122 356.718L689.181 523.005L677.515 534.671L511.685 368.383ZM483.323 401.778L494.53 390.57L656.015 551.825L644.578 563.262L483.323 401.778ZM472.115 453.014L483.551 441.577L603.406 561.203L591.741 572.869L472.115 453.014Z" fill="#787880" fill-opacity="0.16"/>
</svg>
