<svg width="1024" height="1024" viewBox="0 0 1024 1024" fill="none" xmlns="http://www.w3.org/2000/svg">
<rect width="1024" height="1024" fill="#787880" fill-opacity="0.08"/>
<path d="M426.819 755.854C408.215 755.854 393.195 750.364 381.759 739.385C370.322 728.558 364.604 714.225 364.604 696.384V331.1C364.604 313.259 370.322 298.925 381.759 288.098C393.195 277.119 408.215 271.63 426.819 271.63H596.309C615.065 271.63 630.085 277.119 641.369 288.098C652.805 298.925 658.524 313.259 658.524 331.1V696.384C658.524 714.225 652.805 728.558 641.369 739.385C630.085 750.364 615.065 755.854 596.309 755.854H426.819ZM431.622 719.028H591.734C601.341 719.028 608.736 716.512 613.921 711.48C619.106 706.6 621.698 699.586 621.698 690.437V337.047C621.698 327.898 619.106 320.883 613.921 316.004C608.736 310.972 601.341 308.456 591.734 308.456H431.622C421.863 308.456 414.391 310.972 409.207 316.004C404.022 320.883 401.43 327.898 401.43 337.047V690.437C401.43 699.586 404.022 706.6 409.207 711.48C414.391 716.512 421.863 719.028 431.622 719.028ZM463.187 702.331C460.137 702.331 457.545 701.339 455.41 699.357C453.428 697.375 452.437 694.782 452.437 691.58C452.437 688.378 453.428 685.786 455.41 683.803C457.545 681.974 460.137 681.059 463.187 681.059H560.398C563.448 681.059 565.964 681.974 567.946 683.803C569.928 685.786 570.92 688.378 570.92 691.58C570.92 694.782 569.928 697.375 567.946 699.357C565.964 701.339 563.448 702.331 560.398 702.331H463.187ZM484.002 356.947C479.427 356.947 475.539 355.422 472.336 352.372C469.287 349.17 467.762 345.281 467.762 340.707C467.762 336.284 469.287 332.549 472.336 329.499C475.539 326.297 479.427 324.695 484.002 324.695H539.355C543.777 324.695 547.513 326.297 550.562 329.499C553.765 332.549 555.366 336.284 555.366 340.707C555.366 345.281 553.765 349.17 550.562 352.372C547.513 355.422 543.777 356.947 539.355 356.947H484.002Z" fill="#787880" fill-opacity="0.16"/>
</svg>
