<svg width="1024" height="1024" viewBox="0 0 1024 1024" fill="none" xmlns="http://www.w3.org/2000/svg">
<rect width="1024" height="1024" fill="#787880" fill-opacity="0.08"/>
<path d="M223.568 605.577C209.082 605.577 197.416 604.052 188.572 601.003C179.88 597.8 171.875 592.082 164.555 583.848C164.403 583.085 164.326 582.247 164.326 581.332C164.326 580.417 164.326 579.502 164.326 578.587V476.115C164.326 465.594 166.461 456.75 170.731 449.583C175.001 442.416 180.719 437.079 187.886 433.571C195.053 429.912 202.906 428.082 211.445 428.082C220.137 428.082 228.905 429.988 237.749 433.8C246.898 438.07 256.048 441.196 265.197 443.178C274.499 445.161 285.325 446.152 297.677 446.152C311.553 446.152 325.201 442.339 338.62 434.715C352.191 427.091 365.61 414.892 378.876 398.118C395.65 376.312 413.948 364.19 433.772 361.75C453.595 359.158 474.486 364.113 496.444 376.617L507.881 383.251L467.395 439.518C465.413 442.263 464.498 445.542 464.65 449.354C464.955 453.014 466.557 455.911 469.454 458.046C472.199 460.333 475.401 461.324 479.061 461.019C482.873 460.714 485.846 459.113 487.981 456.216L530.754 396.746L559.345 413.443L521.376 465.823C518.936 469.177 517.945 472.532 518.402 475.887C518.86 479.241 520.461 481.986 523.206 484.121C526.255 486.866 529.534 488.086 533.041 487.781C536.701 487.476 539.751 485.722 542.19 482.52L581.99 426.71L610.581 443.407L575.128 492.355C572.84 495.558 571.849 498.912 572.154 502.42C572.459 505.774 573.984 508.519 576.729 510.654C579.778 513.399 583.057 514.542 586.564 514.085C590.224 513.627 593.197 511.874 595.485 508.824L634.14 456.216C637.8 457.893 641.155 459.113 644.204 459.876C647.254 460.638 650.456 461.172 653.811 461.477C657.318 461.629 661.512 461.705 666.391 461.705C671.576 461.705 678.59 461.324 687.435 460.562C696.279 459.647 705.733 458.579 715.797 457.359C726.014 456.14 735.773 455.072 745.075 454.157C754.377 453.242 762.153 452.785 768.405 452.785C778.622 452.785 787.924 454.157 796.311 456.902C804.85 459.494 812.322 463.002 818.726 467.424C825.131 471.846 830.544 476.573 834.966 481.605C840.608 487.704 843.277 494.49 842.972 501.962C842.667 509.434 839.312 516.982 832.908 524.606C826.503 532.231 817.049 539.398 804.545 546.107L737.755 581.332C726.776 587.126 716.026 591.853 705.504 595.513C695.135 599.02 683.317 601.613 670.051 603.29C656.937 604.815 640.85 605.577 621.789 605.577H223.568ZM816.668 569.667C829.782 562.805 839.312 556.171 845.259 549.767C851.206 543.21 855.247 535.586 857.382 526.894C857.534 529.029 857.687 531.24 857.839 533.527C858.144 535.814 858.297 538.178 858.297 540.618C858.297 558.764 852.884 575.614 842.057 591.167C831.383 606.721 814.685 620.826 791.965 633.482C772.751 644.157 754.605 652.62 737.527 658.872C720.448 665.124 702.455 669.622 683.546 672.367C664.79 675.112 643.137 676.484 618.587 676.484H254.675C242.781 676.484 231.04 674.654 219.451 670.994C207.862 667.335 197.569 661.159 188.572 652.467C179.575 643.623 172.942 631.424 168.672 615.87C174.619 620.292 180.414 623.647 186.056 625.934C191.85 628.222 197.797 629.823 203.897 630.738C209.996 631.653 216.553 632.11 223.568 632.11H621.789C641.765 632.11 658.996 631.195 673.482 629.365C687.968 627.535 701.235 624.638 713.281 620.674C725.328 616.556 737.679 611.143 750.336 604.434L816.668 569.667Z" fill="#787880" fill-opacity="0.16"/>
</svg>
