<svg width="1024" height="1024" viewBox="0 0 1024 1024" fill="none" xmlns="http://www.w3.org/2000/svg">
<rect width="1024" height="1024" fill="#787880" fill-opacity="0.08"/>
<path d="M511.561 480.233C503.022 480.233 496.846 484.579 493.034 493.27L468.102 547.937C458.953 567.76 447.517 583.924 433.793 596.428C420.221 608.932 405.049 618.158 388.275 624.105C371.502 630.052 353.965 633.025 335.667 633.025C295.258 633.025 261.711 621.131 235.025 597.343C208.34 573.555 191.795 539.779 185.391 496.015L181.045 467.652C179.52 457.283 176.851 448.973 173.039 442.721C169.379 436.469 165.948 431.208 162.746 426.938C159.544 422.516 157.943 418.094 157.943 413.672C157.943 407.725 160.001 403.074 164.119 399.719C168.388 396.365 174.488 394.687 182.417 394.687C206.358 394.687 229.307 395.068 251.265 395.831C273.223 396.593 293.352 397.661 311.65 399.033C329.949 400.405 345.579 402.083 358.54 404.065C378.973 407.115 396.586 410.546 411.377 414.358C426.321 418.018 439.435 421.601 450.719 425.108C462.155 428.616 472.677 431.513 482.284 433.8C491.89 435.935 501.65 437.002 511.561 437.002C521.32 437.002 531.003 435.935 540.61 433.8C550.217 431.513 560.662 428.616 571.946 425.108C583.383 421.601 596.497 418.018 611.288 414.358C626.232 410.546 643.92 407.115 664.354 404.065C677.315 402.083 692.945 400.405 711.244 399.033C729.542 397.661 749.67 396.593 771.629 395.831C793.587 395.068 816.612 394.687 840.705 394.687C848.482 394.687 854.429 396.365 858.546 399.719C862.816 403.074 864.951 407.725 864.951 413.672C864.951 418.094 863.35 422.516 860.148 426.938C856.945 431.208 853.514 436.469 849.855 442.721C846.195 448.973 843.603 457.283 842.078 467.652L837.732 496.015C831.175 539.779 814.554 573.555 787.869 597.343C761.183 621.131 727.712 633.025 687.456 633.025C669.005 633.025 651.392 630.052 634.619 624.105C617.845 618.158 602.596 608.932 588.872 596.428C575.301 583.924 563.941 567.76 554.791 547.937L530.088 493.27C526.124 484.579 519.948 480.233 511.561 480.233Z" fill="#787880" fill-opacity="0.16"/>
</svg>
