<svg width="1024" height="1024" viewBox="0 0 1024 1024" fill="none" xmlns="http://www.w3.org/2000/svg">
<rect width="1024" height="1024" fill="#787880" fill-opacity="0.08"/>
<path d="M316.223 641.717H707.354L700.492 669.165C696.07 687.158 688.75 700.653 678.534 709.65C668.317 718.647 653.754 723.145 634.846 723.145H388.502C369.594 723.145 355.031 718.57 344.815 709.421C334.751 700.424 327.507 687.006 323.085 669.165L316.223 641.717ZM308.675 610.381L264.53 430.827L286.488 425.108L389.875 500.59C393.687 503.334 396.813 504.402 399.253 503.792C401.845 503.029 404.132 501.2 406.115 498.302L506.299 347.111L517.278 347.569L616.547 497.616C618.682 500.818 621.122 502.801 623.867 503.563C626.764 504.173 630.119 503.106 633.931 500.361L739.376 423.507L758.132 434.258L715.131 610.381H308.675ZM272.993 480.004C263.082 480.004 253.932 477.564 245.545 472.684C237.311 467.652 230.678 461.019 225.646 452.785C220.766 444.551 218.326 435.325 218.326 425.108C218.326 415.197 220.766 406.124 225.646 397.889C230.525 389.655 237.082 383.098 245.317 378.219C253.704 373.186 262.929 370.67 272.993 370.67C283.057 370.67 292.207 373.186 300.441 378.219C308.675 383.098 315.232 389.655 320.112 397.889C324.991 406.124 327.431 415.197 327.431 425.108C327.431 435.325 324.991 444.551 320.112 452.785C315.232 461.019 308.675 467.652 300.441 472.684C292.207 477.564 283.057 480.004 272.993 480.004ZM511.789 384.852C501.724 384.852 492.499 382.412 484.112 377.532C475.878 372.653 469.321 366.096 464.441 357.861C459.562 349.475 457.122 340.249 457.122 330.185C457.122 320.121 459.562 310.972 464.441 302.737C469.321 294.503 475.878 287.946 484.112 283.066C492.499 278.187 501.724 275.747 511.789 275.747C521.7 275.747 530.773 278.263 539.008 283.295C547.394 288.175 554.028 294.732 558.907 302.966C563.787 311.2 566.227 320.273 566.227 330.185C566.227 340.249 563.787 349.475 558.907 357.861C554.028 366.096 547.394 372.653 539.008 377.532C530.773 382.412 521.7 384.852 511.789 384.852ZM750.355 480.004C740.291 480.004 731.142 477.564 722.907 472.684C714.673 467.652 708.116 461.019 703.237 452.785C698.357 444.551 695.917 435.325 695.917 425.108C695.917 415.197 698.357 406.124 703.237 397.889C708.116 389.655 714.673 383.098 722.907 378.219C731.142 373.186 740.291 370.67 750.355 370.67C760.419 370.67 769.569 373.186 777.803 378.219C786.19 383.098 792.823 389.655 797.703 397.889C802.582 406.124 805.022 415.197 805.022 425.108C805.022 435.325 802.506 444.551 797.474 452.785C792.594 461.019 785.961 467.652 777.574 472.684C769.34 477.564 760.267 480.004 750.355 480.004Z" fill="#787880" fill-opacity="0.16"/>
</svg>
