<svg width="1024" height="1024" viewBox="0 0 1024 1024" fill="none" xmlns="http://www.w3.org/2000/svg">
<rect width="1024" height="1024" fill="#787880" fill-opacity="0.08"/>
<path d="M432.781 762.258C423.175 762.258 415.626 759.666 410.137 754.481C404.647 749.297 401.979 742.054 402.131 732.752L406.477 475.887C406.477 471.922 405.638 468.491 403.961 465.594C402.284 462.544 399.615 460.257 395.956 458.732C385.891 454.31 377.657 449.506 371.253 444.322C365.001 438.985 360.502 432.199 357.757 423.965C355.013 415.73 353.945 404.904 354.555 391.485L360.731 251.044C361.036 246.012 362.561 242.123 365.306 239.379C368.05 236.634 371.786 235.262 376.513 235.262C381.088 235.262 384.595 236.71 387.035 239.607C389.627 242.352 390.923 246.317 390.923 251.501L389.322 388.054C389.322 396.746 393.592 401.092 402.131 401.092C405.943 401.092 409.069 400.024 411.509 397.889C414.102 395.602 415.398 392.552 415.398 388.74L417.685 247.384C417.685 242.505 419.057 238.692 421.802 235.948C424.547 233.203 428.207 231.831 432.781 231.831C437.508 231.831 441.168 233.203 443.76 235.948C446.505 238.692 447.954 242.505 448.106 247.384L450.394 388.74C450.394 392.552 451.613 395.602 454.053 397.889C456.493 400.024 459.695 401.092 463.66 401.092C467.32 401.092 470.293 399.948 472.58 397.661C475.02 395.373 476.24 392.171 476.24 388.054L474.639 251.501C474.639 246.317 475.935 242.352 478.527 239.607C481.12 236.71 484.627 235.262 489.049 235.262C499.113 235.262 504.374 240.522 504.832 251.044L511.236 391.485C511.693 404.904 510.55 415.73 507.805 423.965C505.06 432.199 500.486 438.985 494.081 444.322C487.829 449.506 479.671 454.31 469.607 458.732C466.1 460.257 463.431 462.544 461.601 465.594C459.924 468.491 459.085 471.922 459.085 475.887L463.66 732.752C463.66 742.054 460.915 749.297 455.426 754.481C449.936 759.666 442.388 762.258 432.781 762.258ZM611.878 562.805C612.03 558.687 611.115 555.028 609.133 551.825C607.303 548.471 604.406 545.345 600.441 542.447L586.717 533.298C581.075 529.486 576.806 524.683 573.908 518.888C571.011 513.094 569.562 506.232 569.562 498.302V487.095C569.562 464.221 571.011 441.348 573.908 418.475C576.806 395.602 580.923 373.568 586.26 352.372C591.749 331.024 598.23 311.429 605.702 293.588C613.174 275.594 621.484 260.117 630.634 247.156C634.446 241.818 637.953 237.93 641.155 235.49C644.358 233.05 648.094 231.831 652.363 231.831C656.633 231.831 660.445 233.279 663.8 236.176C667.154 238.921 668.832 243.191 668.832 248.985V734.124C668.832 743.273 666.011 750.212 660.369 754.939C654.727 759.818 647.102 762.258 637.496 762.258C628.041 762.258 620.493 759.59 614.851 754.253C609.209 749.068 606.541 741.52 606.846 731.608L611.878 562.805Z" fill="#787880" fill-opacity="0.16"/>
</svg>
