<svg width="1024" height="1024" viewBox="0 0 1024 1024" fill="none" xmlns="http://www.w3.org/2000/svg">
<rect width="1024" height="1024" fill="#787880" fill-opacity="0.08"/>
<path d="M511.136 507.452C485.975 507.452 461.196 506.689 436.798 505.164C412.553 503.639 390.213 501.276 369.78 498.074C353.769 495.786 343.094 489.153 337.757 478.174C332.42 467.042 333.183 453.547 340.045 437.689L407.978 284.667C414.992 268.504 424.523 256.534 436.569 248.757C448.616 240.98 463.56 237.091 481.401 237.091H540.642C558.635 237.091 573.579 240.98 585.473 248.757C597.52 256.534 607.126 268.504 614.293 284.667L682.227 437.689C689.088 453.547 689.851 467.042 684.514 478.174C679.177 489.153 668.503 495.786 652.492 498.074C631.906 501.276 609.49 503.639 585.245 505.164C560.999 506.689 536.296 507.452 511.136 507.452ZM491.922 541.533V497.387H530.12V541.533H491.922ZM475.911 790.621C446.481 790.621 423.455 783.378 406.834 768.891C390.366 754.558 382.131 734.505 382.131 708.735C382.131 692.571 384.571 673.129 389.451 650.409C394.33 627.688 401.116 604.205 409.808 579.959C414.992 565.931 422.998 555.028 433.825 547.251C444.804 539.321 458.146 535.357 473.852 535.357H548.19C563.896 535.357 577.163 539.321 587.989 547.251C598.968 555.028 607.05 565.931 612.235 579.959C620.927 604.205 627.712 627.688 632.592 650.409C637.471 673.129 639.911 692.571 639.911 708.735C639.911 734.505 631.601 754.558 614.98 768.891C598.511 783.378 575.562 790.621 546.132 790.621H475.911Z" fill="#787880" fill-opacity="0.16"/>
</svg>
