<svg width="1024" height="1024" viewBox="0 0 1024 1024" fill="none" xmlns="http://www.w3.org/2000/svg">
<rect width="1024" height="1024" fill="#787880" fill-opacity="0.08"/>
<path d="M627.43 571.954C609.437 571.954 592.358 568.218 576.194 560.746C560.183 553.122 546.002 541.609 533.65 526.208C528.771 520.718 524.959 517.211 522.214 515.686C519.622 514.161 515.047 513.399 508.49 513.399H456.797C445.818 513.399 436.821 510.196 429.807 503.792C422.792 497.235 419.285 488.848 419.285 478.631V411.613C419.285 401.397 422.792 393.086 429.807 386.682C436.821 380.125 445.818 376.846 456.797 376.846H508.49C515.047 376.846 519.622 376.084 522.214 374.559C524.959 373.034 528.771 369.374 533.65 363.58C545.849 348.331 559.955 336.971 575.966 329.499C592.129 322.027 609.284 318.291 627.43 318.291H681.182C686.672 318.291 691.018 319.892 694.22 323.094C697.574 326.297 699.252 330.566 699.252 335.903V554.113C699.252 559.45 697.574 563.796 694.22 567.15C691.018 570.353 686.672 571.954 681.182 571.954H627.43ZM692.39 418.704V375.245H768.329C774.276 375.245 779.384 377.38 783.654 381.649C787.923 385.767 790.058 390.875 790.058 396.974C790.058 403.074 787.923 408.259 783.654 412.528C779.384 416.645 774.276 418.704 768.329 418.704H692.39ZM692.39 515V471.312H768.329C774.276 471.312 779.384 473.447 783.654 477.717C787.923 481.834 790.058 487.018 790.058 493.27C790.058 499.217 787.923 504.326 783.654 508.595C779.384 512.865 774.276 515 768.329 515H692.39ZM233.326 709.421V672.596H424.774C439.871 672.596 451.765 668.631 460.457 660.702C469.148 652.62 473.494 642.327 473.494 629.823C473.494 617.166 469.148 606.797 460.457 598.715C451.917 590.481 440.023 586.364 424.774 586.364H321.388C303.547 586.364 287.993 582.933 274.727 576.071C261.613 569.057 251.396 559.526 244.077 547.48C236.91 535.433 233.326 521.633 233.326 506.079C233.326 490.678 236.91 477.03 244.077 465.136C251.396 453.09 261.613 443.636 274.727 436.774C287.993 429.912 303.547 426.481 321.388 426.481H436.44V463.307H318.872C303.776 463.307 291.882 467.347 283.19 475.429C274.498 483.359 270.152 493.575 270.152 506.079C270.152 518.736 274.422 529.181 282.961 537.415C291.5 545.497 303.471 549.538 318.872 549.538H422.258C440.099 549.538 455.577 553.045 468.691 560.06C481.957 566.922 492.174 576.376 499.341 588.422C506.66 600.469 510.32 614.269 510.32 629.823C510.32 645.224 506.66 658.948 499.341 670.994C492.174 682.888 481.957 692.266 468.691 699.128C455.577 705.99 440.099 709.421 422.258 709.421H233.326Z" fill="#787880" fill-opacity="0.16"/>
</svg>
