<svg width="1024" height="1024" viewBox="0 0 1024 1024" fill="none" xmlns="http://www.w3.org/2000/svg">
<rect width="1024" height="1024" fill="#787880" fill-opacity="0.08"/>
<path d="M243.326 462.62V451.412C243.326 440.738 246.452 432.199 252.704 425.795C258.956 419.39 267.496 416.188 278.322 416.188H743.79C754.617 416.188 763.156 419.39 769.408 425.795C775.813 432.199 779.015 440.738 779.015 451.412V462.62C779.015 473.447 775.813 481.986 769.408 488.238C763.156 494.49 754.617 497.616 743.79 497.616H278.322C267.496 497.616 258.956 494.49 252.704 488.238C246.452 481.986 243.326 473.447 243.326 462.62ZM388.799 748.763C371.263 748.763 357.311 745.713 346.942 739.614C336.725 733.514 329.024 725.585 323.84 715.826C318.655 706.067 314.996 695.697 312.861 684.718L281.296 528.952H741.274L709.481 684.718C707.346 695.697 703.686 706.067 698.501 715.826C693.317 725.585 685.54 733.514 675.171 739.614C664.954 745.713 651.078 748.763 633.542 748.763H388.799ZM403.667 709.421C408.242 708.659 411.596 706.829 413.731 703.932C415.866 701.034 416.628 697.68 416.018 693.868L396.576 578.816C395.966 575.004 394.06 572.106 390.858 570.124C387.808 567.989 384.149 567.227 379.879 567.837C375.457 568.599 372.102 570.429 369.815 573.326C367.527 576.223 366.765 579.578 367.527 583.39L387.198 698.442C387.961 702.254 389.791 705.152 392.688 707.134C395.738 709.269 399.397 710.031 403.667 709.421ZM476.175 709.193C480.292 708.888 483.647 707.363 486.239 704.618C488.831 702.026 490.051 698.747 489.899 694.782L482.351 581.103C482.046 577.138 480.444 573.936 477.547 571.496C474.802 569.057 471.219 567.989 466.797 568.294C462.527 568.599 459.096 570.124 456.504 572.869C453.912 575.461 452.768 578.74 453.073 582.704L460.621 696.384C460.926 700.348 462.451 703.55 465.196 705.99C468.093 708.43 471.753 709.497 476.175 709.193ZM546.624 709.193C550.894 709.497 554.401 708.43 557.146 705.99C560.043 703.55 561.644 700.348 561.949 696.384L569.497 582.704C569.802 578.74 568.658 575.461 566.066 572.869C563.474 570.124 560.043 568.599 555.773 568.294C551.351 567.989 547.691 569.057 544.794 571.496C542.049 573.936 540.524 577.138 540.22 581.103L532.671 694.782C532.519 698.747 533.739 702.026 536.331 704.618C538.923 707.363 542.354 708.888 546.624 709.193ZM618.674 709.421C622.791 710.031 626.375 709.269 629.425 707.134C632.474 705.152 634.381 702.254 635.143 698.442L654.814 583.848C655.576 580.036 654.814 576.605 652.527 573.555C650.239 570.505 646.884 568.599 642.462 567.837C638.193 567.227 634.457 567.989 631.255 570.124C628.205 572.106 626.375 575.004 625.765 578.816L606.323 693.868C605.713 697.68 606.475 701.034 608.61 703.932C610.897 706.829 614.252 708.659 618.674 709.421ZM316.978 426.023L410.529 267.741C413.579 262.557 417.543 259.583 422.423 258.821C427.303 258.058 431.801 258.821 435.918 261.108C440.035 263.395 443.009 266.826 444.839 271.401C446.821 275.823 446.287 280.779 443.237 286.269L362.724 426.023H316.978ZM659.617 426.023L579.104 286.269C576.054 280.779 575.444 275.823 577.274 271.401C579.256 266.826 582.306 263.395 586.423 261.108C590.693 258.973 595.267 258.287 600.147 259.05C605.027 259.812 608.915 262.709 611.812 267.741L705.363 426.023H659.617Z" fill="#787880" fill-opacity="0.16"/>
</svg>
