<svg width="1024" height="1024" viewBox="0 0 1024 1024" fill="none" xmlns="http://www.w3.org/2000/svg">
<rect width="1024" height="1024" fill="#787880" fill-opacity="0.08"/>
<path d="M408.159 363.58V267.741C408.159 260.574 410.523 254.78 415.25 250.358C419.977 245.936 426 243.725 433.32 243.725L567.127 243.496C574.599 243.496 580.623 245.707 585.197 250.129C589.924 254.551 592.288 260.346 592.288 267.513V363.122L500.338 359.691L408.159 363.58ZM433.32 784.445C426 784.445 419.977 782.158 415.25 777.583C410.523 773.161 408.159 767.443 408.159 760.428V664.132L500.338 667.563L592.288 664.361V760.657C592.288 767.824 589.924 773.618 585.197 778.041C580.623 782.463 574.599 784.674 567.127 784.674L433.32 784.445ZM500.338 693.639C475.177 693.639 451.694 689.064 429.889 679.915C408.083 670.766 388.946 657.957 372.477 641.488C356.161 625.019 343.352 605.959 334.05 584.305C324.901 562.5 320.326 539.017 320.326 513.856C320.326 488.696 324.901 465.213 334.05 443.407C343.352 421.601 356.161 402.54 372.477 386.224C388.946 369.755 408.083 356.947 429.889 347.797C451.694 338.496 475.177 333.845 500.338 333.845C525.346 333.845 548.753 338.496 570.558 347.797C592.364 356.947 611.425 369.755 627.741 386.224C644.21 402.54 657.019 421.601 666.168 443.407C675.47 465.213 680.121 488.696 680.121 513.856C680.121 539.017 675.47 562.5 666.168 584.305C657.019 605.959 644.21 625.019 627.741 641.488C611.425 657.957 592.364 670.766 570.558 679.915C548.753 689.064 525.346 693.639 500.338 693.639ZM500.338 659.1C529.006 659.1 554.242 653.001 576.048 640.802C597.854 628.603 614.856 611.601 627.055 589.795C639.406 567.837 645.582 542.524 645.582 513.856C645.582 485.036 639.406 459.723 627.055 437.917C614.856 416.112 597.854 399.109 576.048 386.91C554.242 374.559 529.006 368.383 500.338 368.383C471.518 368.383 446.205 374.559 424.399 386.91C402.593 399.109 385.515 416.112 373.163 437.917C360.964 459.723 354.865 485.036 354.865 513.856C354.865 542.524 360.964 567.837 373.163 589.795C385.515 611.601 402.593 628.603 424.399 640.802C446.205 653.001 471.518 659.1 500.338 659.1ZM514.748 526.665C510.173 530.782 505.446 532.841 500.567 532.841C495.839 532.841 491.036 530.782 486.157 526.665L439.267 487.323C435.912 484.426 434.006 480.843 433.548 476.573C433.243 472.303 434.463 468.567 437.208 465.365C440.105 462.163 443.613 460.333 447.73 459.876C451.999 459.418 455.659 460.562 458.709 463.307L500.338 498.302L566.441 440.891C569.796 438.146 573.532 436.774 577.649 436.774C581.766 436.621 585.273 437.994 588.171 440.891C591.373 444.093 592.898 447.905 592.745 452.327C592.745 456.597 591.144 460.104 587.942 462.849L514.748 526.665ZM667.769 548.395V478.86H691.1C694.302 478.86 696.97 480.004 699.105 482.291C701.393 484.426 702.536 487.171 702.536 490.526V536.729C702.536 540.084 701.469 542.905 699.334 545.192C697.199 547.327 694.454 548.395 691.1 548.395H667.769Z" fill="#787880" fill-opacity="0.16"/>
</svg>
