<svg width="1024" height="1024" viewBox="0 0 1024 1024" fill="none" xmlns="http://www.w3.org/2000/svg">
<rect width="1024" height="1024" fill="#787880" fill-opacity="0.08"/>
<path d="M388.54 746.247C366.887 746.247 352.172 740.605 344.395 729.321C336.618 718.189 333.263 702.178 334.331 681.287L340.049 544.049L352.629 635.084L329.756 735.725C327.164 747.162 321.751 754.024 313.516 756.311C305.282 758.598 295.447 758.217 284.01 755.167L231.859 740.986C220.423 737.936 212.646 732.066 208.529 723.374C204.564 714.682 204.259 704.313 207.614 692.266L295.904 374.788C299.564 361.826 304.443 351.686 310.543 344.366C316.642 336.894 326.02 330.795 338.677 326.068L356.746 319.206L424.451 399.948C430.855 407.42 438.327 411.385 446.867 411.842C455.406 412.147 462.954 409.097 469.511 402.693L494.443 377.761V746.247H388.54ZM402.95 641.031L449.84 606.721C453.652 603.976 455.863 600.393 456.473 595.971C457.236 591.548 456.245 587.508 453.5 583.848C450.907 580.188 447.324 578.053 442.749 577.443C438.327 576.681 434.286 577.596 430.627 580.188L383.965 614.269C380.153 617.014 377.866 620.597 377.104 625.019C376.494 629.442 377.485 633.482 380.077 637.142C382.822 640.954 386.405 643.242 390.827 644.004C395.25 644.767 399.29 643.775 402.95 641.031ZM528.752 746.247V377.532L553.913 402.693C560.47 409.097 568.018 412.147 576.557 411.842C585.096 411.385 592.568 407.42 598.973 399.948L666.677 319.435L684.518 326.068C697.175 330.795 706.553 336.894 712.652 344.366C718.904 351.686 723.784 361.826 727.291 374.788L815.581 692.266C818.936 704.313 818.555 714.682 814.438 723.374C810.473 732.066 802.772 737.936 791.336 740.986L739.185 755.167C727.901 758.217 718.065 758.598 709.679 756.311C701.444 754.024 696.107 747.162 693.667 735.725L669.651 630.509L683.146 537.415L688.864 681.287C689.932 702.178 686.577 718.189 678.8 729.321C671.023 740.605 656.384 746.247 634.884 746.247H528.752ZM621.617 641.031C625.429 643.775 629.47 644.767 633.74 644.004C638.162 643.242 641.746 640.954 644.49 637.142C647.083 633.482 647.998 629.442 647.235 625.019C646.625 620.597 644.414 617.014 640.602 614.269L593.941 580.188C590.281 577.596 586.164 576.681 581.589 577.443C577.167 578.053 573.66 580.188 571.068 583.848C568.475 587.508 567.484 591.548 568.094 595.971C568.857 600.393 571.068 603.976 574.727 606.721L621.617 641.031ZM439.09 369.298L392.657 314.403C390.065 311.353 388.845 308.227 388.998 305.025C389.15 301.822 390.827 298.849 394.03 296.104L424.908 269.571C428.568 266.369 432.152 264.997 435.659 265.454C439.166 265.912 442.673 267.894 446.18 271.401L492.613 318.748C495.815 322.103 497.34 325.763 497.187 329.728C497.187 333.54 495.586 337.047 492.384 340.249L463.564 369.298C459.447 373.415 455.33 375.702 451.212 376.16C447.248 376.465 443.207 374.178 439.09 369.298ZM584.791 369.298C580.674 374.178 576.557 376.465 572.44 376.16C568.475 375.702 564.434 373.415 560.317 369.298L531.268 340.249C528.219 337.047 526.617 333.54 526.465 329.728C526.465 325.763 528.066 322.103 531.268 318.748L577.701 271.401C581.208 267.894 584.715 265.912 588.222 265.454C591.73 264.997 595.313 266.369 598.973 269.571L629.852 296.104C633.054 298.849 634.655 301.822 634.655 305.025C634.807 308.227 633.664 311.353 631.224 314.403L584.791 369.298Z" fill="#787880" fill-opacity="0.16"/>
</svg>
