<svg width="1024" height="1024" viewBox="0 0 1024 1024" fill="none" xmlns="http://www.w3.org/2000/svg">
<rect width="1024" height="1024" fill="#787880" fill-opacity="0.08"/>
<path d="M511.249 747.162C479.074 747.162 448.881 741.062 420.671 728.863C392.461 716.817 367.682 700.12 346.333 678.771C324.985 657.271 308.212 632.491 296.013 604.434C283.966 576.223 277.943 546.031 277.943 513.856C277.943 481.681 283.966 451.489 296.013 423.279C308.212 395.068 324.985 370.289 346.333 348.941C367.682 327.593 392.461 310.895 420.671 298.849C448.881 286.65 479.074 280.55 511.249 280.55C543.424 280.55 573.616 286.65 601.826 298.849C630.036 310.895 654.816 327.593 676.164 348.941C697.512 370.289 714.209 395.068 726.256 423.279C738.455 451.489 744.554 481.681 744.554 513.856C744.554 546.031 738.455 576.223 726.256 604.434C714.209 632.491 697.512 657.271 676.164 678.771C654.816 700.12 630.036 716.817 601.826 728.863C573.616 741.062 543.424 747.162 511.249 747.162ZM511.249 631.653C527.565 631.653 541.899 628.679 554.25 622.732C566.754 616.785 576.437 609.999 583.299 602.375C590.161 594.751 593.592 588.346 593.592 583.162C593.592 580.264 592.448 578.282 590.161 577.215C587.874 576.147 585.51 576.147 583.07 577.215C574.531 581.942 564.696 586.516 553.564 590.938C542.432 595.208 528.327 597.343 511.249 597.343C494.018 597.343 479.836 595.132 468.705 590.71C457.726 586.288 447.89 581.789 439.198 577.215C436.759 576.147 434.395 576.147 432.108 577.215C429.82 578.282 428.677 580.264 428.677 583.162C428.677 588.346 432.108 594.751 438.97 602.375C445.984 609.999 455.667 616.785 468.018 622.732C480.37 628.679 494.78 631.653 511.249 631.653ZM441.257 492.355C448.729 492.355 455.286 489.382 460.928 483.435C466.722 477.335 469.62 469.558 469.62 460.104C469.62 450.498 466.799 442.644 461.157 436.545C455.515 430.445 448.881 427.396 441.257 427.396C433.785 427.396 427.304 430.445 421.815 436.545C416.325 442.644 413.58 450.498 413.58 460.104C413.58 469.558 416.325 477.335 421.815 483.435C427.457 489.382 433.938 492.355 441.257 492.355ZM581.012 492.355C588.484 492.355 595.041 489.382 600.683 483.435C606.477 477.335 609.374 469.558 609.374 460.104C609.374 450.498 606.553 442.644 600.911 436.545C595.269 430.445 588.636 427.396 581.012 427.396C573.54 427.396 566.983 430.445 561.341 436.545C555.851 442.644 553.106 450.498 553.106 460.104C553.106 469.558 555.927 477.335 561.57 483.435C567.212 489.382 573.692 492.355 581.012 492.355Z" fill="#787880" fill-opacity="0.16"/>
</svg>
