<svg width="1024" height="1024" viewBox="0 0 1024 1024" fill="none" xmlns="http://www.w3.org/2000/svg">
<rect width="1024" height="1024" fill="#787880" fill-opacity="0.08"/>
<path d="M542.802 753.795C539.905 753.795 537.389 752.804 535.254 750.822C533.272 748.992 532.052 746.476 531.595 743.273C528.087 718.266 524.275 697.222 520.158 680.144C516.193 663.218 510.856 649.265 504.147 638.286C497.437 627.307 488.593 618.539 477.614 611.982C466.787 605.425 452.911 600.164 435.985 596.199C419.211 592.082 398.473 588.422 373.77 585.22C370.415 584.915 367.747 583.695 365.764 581.561C363.782 579.426 362.791 576.833 362.791 573.784C362.791 570.886 363.782 568.37 365.764 566.236C367.747 564.101 370.415 562.881 373.77 562.576C398.473 559.831 419.288 556.553 436.214 552.74C453.14 548.928 467.092 543.667 478.071 536.958C489.051 530.248 497.895 521.328 504.604 510.196C511.314 499.065 516.651 484.96 520.615 467.881C524.733 450.65 528.392 429.454 531.595 404.294C532.052 401.244 533.272 398.804 535.254 396.974C537.389 394.992 539.905 394.001 542.802 394.001C545.852 394.001 548.368 394.992 550.351 396.974C552.333 398.804 553.629 401.244 554.239 404.294C557.441 429.454 561.025 450.65 564.989 467.881C569.106 484.96 574.444 499.065 581 510.196C587.71 521.328 596.554 530.248 607.533 536.958C618.512 543.667 632.465 548.928 649.391 552.74C666.317 556.553 687.208 559.831 712.063 562.576C715.266 562.881 717.858 564.101 719.84 566.236C721.823 568.37 722.814 570.886 722.814 573.784C722.814 576.833 721.823 579.426 719.84 581.561C717.858 583.695 715.266 584.915 712.063 585.22C687.208 587.965 666.317 591.243 649.391 595.056C632.465 598.868 618.512 604.129 607.533 610.838C596.554 617.395 587.71 626.239 581 637.371C574.444 648.503 569.106 662.684 564.989 679.915C561.025 697.146 557.441 718.266 554.239 743.273C553.629 746.476 552.333 748.992 550.351 750.822C548.368 752.804 545.852 753.795 542.802 753.795ZM387.723 500.818C383.148 500.818 380.556 498.302 379.946 493.27C378.116 478.022 376.134 466.051 373.999 457.359C372.016 448.668 368.738 442.187 364.163 437.917C359.741 433.495 353.032 430.14 344.035 427.853C335.191 425.566 322.992 423.126 307.438 420.534C302.253 419.771 299.661 417.179 299.661 412.757C299.661 408.487 301.948 405.971 306.523 405.209C322.229 402.159 334.581 399.491 343.578 397.203C352.574 394.763 359.36 391.409 363.935 387.139C368.509 382.869 371.864 376.541 373.999 368.154C376.134 359.615 378.116 347.721 379.946 332.472C380.556 327.44 383.148 324.924 387.723 324.924C392.297 324.924 394.89 327.364 395.5 332.244C397.482 347.645 399.464 359.768 401.447 368.612C403.581 377.456 406.86 384.166 411.282 388.74C415.857 393.162 422.642 396.441 431.639 398.576C440.636 400.71 453.064 402.921 468.922 405.209C470.905 405.361 472.506 406.124 473.726 407.496C475.098 408.868 475.784 410.622 475.784 412.757C475.784 417.027 473.497 419.619 468.922 420.534C453.064 423.584 440.636 426.328 431.639 428.768C422.795 431.055 416.085 434.41 411.511 438.832C407.089 443.102 403.81 449.506 401.675 458.046C399.54 466.585 397.482 478.479 395.5 493.728C395.195 495.71 394.356 497.387 392.983 498.76C391.611 500.132 389.857 500.818 387.723 500.818ZM498.429 343.451C495.531 343.451 493.854 341.926 493.396 338.877C491.567 329.575 489.965 322.256 488.593 316.919C487.373 311.581 485.391 307.541 482.646 304.796C480.054 301.899 476.013 299.611 470.523 297.934C465.034 296.257 457.333 294.579 447.421 292.902C444.372 292.292 442.847 290.538 442.847 287.641C442.847 284.896 444.372 283.219 447.421 282.609C457.333 280.779 465.034 279.102 470.523 277.577C476.013 275.899 480.054 273.688 482.646 270.944C485.391 268.046 487.373 263.929 488.593 258.592C489.965 253.255 491.567 245.936 493.396 236.634C493.854 233.584 495.531 232.059 498.429 232.059C501.173 232.059 502.851 233.584 503.461 236.634C505.138 245.936 506.663 253.255 508.035 258.592C509.408 263.929 511.39 268.046 513.982 270.944C516.727 273.688 520.844 275.899 526.334 277.577C531.823 279.102 539.524 280.779 549.436 282.609C552.485 283.219 554.01 284.896 554.01 287.641C554.01 290.538 552.485 292.292 549.436 292.902C539.524 294.579 531.823 296.257 526.334 297.934C520.844 299.611 516.727 301.899 513.982 304.796C511.39 307.541 509.408 311.581 508.035 316.919C506.663 322.256 505.138 329.575 503.461 338.877C502.851 341.926 501.173 343.451 498.429 343.451Z" fill="#787880" fill-opacity="0.16"/>
</svg>
