<svg width="1024" height="1024" viewBox="0 0 1024 1024" fill="none" xmlns="http://www.w3.org/2000/svg">
<rect width="1024" height="1024" fill="#787880" fill-opacity="0.08"/>
<path d="M181.326 674.197C181.326 667.03 183.842 660.93 188.875 655.898C193.907 650.714 200.006 648.121 207.173 648.121H257.265V376.617C257.265 360.606 261.611 348.56 270.303 340.478C279.147 332.244 291.117 328.126 306.214 328.126H716.1C732.111 328.126 744.234 332.244 752.468 340.478C760.855 348.56 765.048 360.606 765.048 376.617V648.121H815.141C822.307 648.121 828.407 650.714 833.439 655.898C838.471 660.93 840.987 667.03 840.987 674.197C840.987 681.364 838.471 687.463 833.439 692.495C828.407 697.68 822.307 700.272 815.141 700.272H207.173C200.006 700.272 193.907 697.68 188.875 692.495C183.842 687.463 181.326 681.364 181.326 674.197ZM294.091 648.121H728.223V386.91C728.223 379.591 726.393 374.101 722.733 370.442C719.073 366.782 713.584 364.952 706.264 364.952H316.049C308.73 364.952 303.24 366.782 299.58 370.442C295.921 374.101 294.091 379.591 294.091 386.91V648.121Z" fill="#787880" fill-opacity="0.16"/>
</svg>
