<svg width="1024" height="1024" viewBox="0 0 1024 1024" fill="none" xmlns="http://www.w3.org/2000/svg">
<rect width="1024" height="1024" fill="#787880" fill-opacity="0.08"/>
<path d="M356.141 606.492V421.449C356.141 403.608 359.572 388.283 366.434 375.474C373.296 362.512 383.131 352.601 395.94 345.739C402.345 342.536 407.453 338.572 411.265 333.845C415.23 329.118 418.28 323.018 420.414 315.546L427.734 290.843C432.003 276.357 441.991 269.114 457.698 269.114H563.371C579.23 269.114 589.142 276.357 593.106 290.843L600.655 315.546C602.942 323.018 605.992 329.118 609.804 333.845C613.769 338.419 618.877 342.384 625.129 345.739C638.09 352.906 647.926 362.894 654.635 375.702C661.497 388.511 664.928 403.76 664.928 421.449V606.492C664.928 624.181 661.497 639.43 654.635 652.238C647.926 665.047 638.09 675.035 625.129 682.202C618.877 685.557 613.769 689.522 609.804 694.096C605.992 698.823 602.942 704.999 600.655 712.623L593.106 737.098C588.837 751.584 578.925 758.827 563.371 758.827H457.698C441.991 758.827 432.003 751.584 427.734 737.098L420.414 712.623C418.127 704.999 415.001 698.823 411.036 694.096C407.224 689.522 402.192 685.557 395.94 682.202C382.979 675.035 373.067 665.047 366.205 652.238C359.496 639.43 356.141 624.181 356.141 606.492ZM389.536 601.689C389.536 618.615 394.187 631.958 403.488 641.717C412.943 651.324 426.056 656.127 442.83 656.127H578.239C595.013 656.127 608.05 651.324 617.352 641.717C626.806 631.958 631.533 618.615 631.533 601.689V426.481C631.533 409.402 626.806 396.06 617.352 386.453C608.05 376.694 595.013 371.814 578.239 371.814H442.83C426.056 371.814 412.943 376.694 403.488 386.453C394.187 396.06 389.536 409.402 389.536 426.481V601.689ZM659.896 497.845V424.88H668.13C674.077 424.88 678.804 426.786 682.312 430.598C685.971 434.258 687.801 439.366 687.801 445.923V476.802C687.801 483.359 685.971 488.543 682.312 492.355C678.804 496.015 674.077 497.845 668.13 497.845H659.896ZM443.288 465.365C446.032 462.163 449.463 460.409 453.58 460.104C457.85 459.647 461.586 460.714 464.788 463.307L506.189 498.302L579.154 434.944C582.356 432.047 586.016 430.598 590.133 430.598C594.403 430.598 597.986 432.047 600.883 434.944C603.933 438.146 605.458 441.958 605.458 446.38C605.458 450.65 603.857 454.157 600.655 456.902L520.827 526.665C516.1 530.782 511.373 532.841 506.646 532.841C501.919 532.841 497.116 530.782 492.236 526.665L445.346 487.323C441.991 484.426 440.085 480.843 439.628 476.573C439.323 472.303 440.543 468.567 443.288 465.365Z" fill="#787880" fill-opacity="0.16"/>
</svg>
