<svg width="1024" height="1024" viewBox="0 0 1024 1024" fill="none" xmlns="http://www.w3.org/2000/svg">
<rect width="1024" height="1024" fill="#787880" fill-opacity="0.08"/>
<path d="M393.792 247.384C406.296 247.384 418.19 251.578 429.474 259.964C440.759 268.199 450.823 279.025 459.667 292.444C468.664 305.711 475.678 320.121 480.71 335.675C485.895 351.228 488.487 366.324 488.487 380.963C488.487 390.265 487.343 402.083 485.056 416.417C482.921 430.598 479.567 445.77 474.992 461.934C470.417 477.945 464.47 493.27 457.151 507.909H330.663C323.343 493.27 317.396 477.945 312.822 461.934C308.247 445.77 304.816 430.598 302.529 416.417C300.394 402.083 299.326 390.265 299.326 380.963C299.326 366.324 301.842 351.228 306.875 335.675C312.059 320.121 319.074 305.711 327.918 292.444C336.762 279.025 346.826 268.199 358.11 259.964C369.547 251.578 381.441 247.384 393.792 247.384ZM394.021 642.403C376.18 642.403 362.532 634.397 353.078 618.386C343.777 602.375 339.126 581.789 339.126 556.629C339.126 554.189 339.202 551.368 339.354 548.166C339.659 544.964 340.041 541.99 340.498 539.245H447.544C448.002 541.99 448.307 544.964 448.459 548.166C448.764 551.368 448.917 554.189 448.917 556.629C448.917 573.402 446.782 588.27 442.512 601.231C438.395 614.04 432.219 624.105 423.985 631.424C415.903 638.743 405.915 642.403 394.021 642.403ZM671.701 397.661C683.442 401.93 693.202 409.936 700.978 421.677C708.755 433.266 714.474 446.838 718.133 462.392C721.945 477.945 723.623 493.956 723.165 510.425C722.708 526.741 719.963 541.685 714.931 555.256C711.729 564.253 706.62 575.08 699.606 587.736C692.744 600.24 684.357 613.278 674.446 626.849C664.686 640.268 653.86 652.696 641.966 664.132L523.026 620.902C521.348 604.586 521.043 588.117 522.111 571.496C523.331 554.723 525.313 539.245 528.058 525.064C530.955 510.883 534.005 499.446 537.207 490.754C542.239 477.03 549.787 463.764 559.851 450.955C570.068 437.994 581.581 426.786 594.39 417.332C607.351 407.877 620.541 401.168 633.96 397.203C647.532 393.239 660.112 393.391 671.701 397.661ZM536.749 768.891C519.976 762.639 509.912 750.364 506.557 732.066C503.355 713.92 506.023 693.029 514.562 669.393C515.325 667.106 516.392 664.514 517.765 661.616C519.137 658.567 520.509 655.822 521.882 653.382L622.524 690.208C621.914 692.953 621.151 695.85 620.236 698.9C619.474 702.102 618.635 704.847 617.72 707.134C609.181 730.617 597.744 748.306 583.411 760.2C569.077 772.094 553.523 774.991 536.749 768.891Z" fill="#787880" fill-opacity="0.16"/>
</svg>
