<svg width="1024" height="1024" viewBox="0 0 1024 1024" fill="none" xmlns="http://www.w3.org/2000/svg">
<rect width="1024" height="1024" fill="#787880" fill-opacity="0.08"/>
<path d="M395.141 763.631C373.945 763.631 358.087 758.446 347.565 748.077C337.196 737.86 331.859 722.23 331.554 701.187L328.809 476.573L272.541 489.382C261.867 491.669 253.099 490.678 246.237 486.408C239.528 482.139 234.877 474.514 232.285 463.535L211.928 382.336C209.183 371.509 209.793 362.36 213.757 354.888C217.875 347.264 225.118 341.24 235.487 336.818L396.514 268.199C401.088 266.216 405.51 265.302 409.78 265.454C414.05 265.454 418.319 266.445 422.589 268.428C432.653 273.155 442.26 277.119 451.409 280.322C460.711 283.524 470.165 285.964 479.772 287.641C489.531 289.318 500.129 290.157 511.565 290.157C522.849 290.157 533.295 289.318 542.902 287.641C552.661 285.964 562.115 283.524 571.264 280.322C580.566 277.119 590.249 273.155 600.313 268.428C604.583 266.445 608.852 265.454 613.122 265.454C617.392 265.302 621.814 266.216 626.388 268.199L787.415 336.818C797.937 341.24 805.18 347.264 809.145 354.888C813.109 362.36 813.719 371.509 810.975 382.336L790.617 463.535C788.025 474.514 783.298 482.139 776.436 486.408C769.727 490.678 761.035 491.669 750.361 489.382L694.322 476.573L691.348 701.187C691.043 722.23 685.63 737.86 675.108 748.077C664.739 758.446 648.957 763.631 627.761 763.631H395.141ZM511.565 361.521C524.679 361.521 536.421 359.386 546.79 355.117C557.159 350.695 565.927 344.519 573.094 336.589C580.261 328.66 585.751 319.206 589.563 308.227C577.669 312.801 565.012 316.309 551.593 318.748C538.327 321.188 524.984 322.408 511.565 322.408C497.994 322.408 484.499 321.188 471.08 318.748C457.814 316.309 445.233 312.801 433.339 308.227C437.304 319.358 442.87 328.889 450.037 336.818C457.356 344.748 466.124 350.847 476.341 355.117C486.71 359.386 498.451 361.521 511.565 361.521Z" fill="#787880" fill-opacity="0.16"/>
</svg>
