<svg width="1024" height="1024" viewBox="0 0 1024 1024" fill="none" xmlns="http://www.w3.org/2000/svg">
<rect width="1024" height="1024" fill="#787880" fill-opacity="0.08"/>
<path d="M416.076 531.24V478.86C416.076 465.441 413.255 453.471 407.613 442.949C402.123 432.428 394.422 424.117 384.511 418.018C374.752 411.918 363.467 408.868 350.658 408.868H348.142V362.665C348.142 347.721 352.565 335.751 361.409 326.754C370.406 317.605 382.071 313.03 396.405 313.03H626.28C640.613 313.03 652.202 317.605 661.047 326.754C669.891 335.751 674.313 347.721 674.313 362.665V408.868H671.797C658.988 408.868 647.704 411.918 637.945 418.018C628.186 424.117 620.485 432.428 614.843 442.949C609.353 453.471 606.609 465.441 606.609 478.86V531.24H416.076ZM284.326 617.929V478.86C284.326 464.679 288.672 453.242 297.364 444.551C306.056 435.706 317.34 431.284 331.216 431.284H342.424C356.453 431.284 367.737 435.706 376.276 444.551C384.968 453.242 389.314 464.679 389.314 478.86V557.772H633.141V478.86C633.141 464.679 637.487 453.242 646.179 444.551C654.871 435.706 666.155 431.284 680.031 431.284H691.468C705.344 431.284 716.628 435.706 725.32 444.551C734.012 453.242 738.358 464.679 738.358 478.86V617.929C738.358 632.263 734.012 643.775 725.32 652.467C716.628 661.159 705.344 665.505 691.468 665.505H331.216C317.34 665.505 306.056 661.159 297.364 652.467C288.672 643.775 284.326 632.263 284.326 617.929ZM365.069 714.453C358.969 714.453 354.089 712.623 350.43 708.964C346.77 705.304 344.94 700.424 344.94 694.325V645.834H399.836V694.325C399.836 700.424 397.93 705.304 394.117 708.964C390.458 712.623 385.578 714.453 379.479 714.453H365.069ZM643.206 714.453C636.954 714.453 631.998 712.623 628.338 708.964C624.678 705.304 622.849 700.424 622.849 694.325V645.834H677.515V694.325C677.515 700.424 675.685 705.304 672.026 708.964C668.519 712.623 663.639 714.453 657.387 714.453H643.206Z" fill="#787880" fill-opacity="0.16"/>
</svg>
